<svg width="178" height="125" viewBox="0 0 178 125" fill="none" xmlns="http://www.w3.org/2000/svg">
<path d="M48.6734 31.1414C48.8787 31.7589 49.0842 32.5823 49.2895 33.1998C50.111 35.8756 50.9325 38.9631 51.754 42.8739L45.3874 44.7264C42.923 39.5806 40.6639 34.4348 38.1994 29.289C37.7886 28.8773 34.5026 25.1723 35.3241 20.2323C35.7348 17.3506 37.3779 15.4981 38.1994 14.6748C38.4047 14.6748 39.0208 14.6748 39.4316 14.8806C41.896 15.4981 44.3606 18.174 48.0573 29.7006C48.468 30.1123 48.6734 30.7298 48.6734 31.1414Z" fill="#FFB68D"/>
<path d="M48.6735 31.1415C48.8789 31.759 49.0843 32.5823 49.2896 33.1998C46.4144 33.4057 43.7446 33.6115 40.8693 34.0232L48.2628 29.7007C48.4682 30.1123 48.6735 30.7298 48.6735 31.1415Z" fill="#E88D60"/>
<path d="M50.9325 30.3183C47.2358 31.9649 43.5391 33.4057 39.8424 35.0524C37.7887 31.3474 35.9403 27.8483 33.8866 24.1433C35.1188 20.6441 36.351 17.1449 37.5833 13.4399C38.4048 13.6458 39.8424 13.8516 41.28 14.6749C43.1284 15.7041 44.3606 17.3508 44.7713 17.9683C46.8251 22.0849 48.8788 26.2016 50.9325 30.3183Z" fill="#BBC4FE"/>
<path d="M14.1708 60.9873C15.403 62.0165 16.4299 62.8398 17.6622 63.869C19.3051 62.2223 20.9481 60.5757 22.7965 58.929C26.0825 55.8415 29.163 52.9599 32.449 50.284C32.8598 49.6665 33.0651 49.049 33.2705 48.0199C33.4759 47.1965 33.4759 46.3732 33.4759 45.7557C31.8329 44.3149 29.9845 43.0799 28.3415 41.639C26.6985 43.2857 25.4663 44.7265 24.8502 45.5499C20.9481 50.6957 20.7428 54.4007 16.6353 58.7232C15.6084 59.9582 14.7869 60.5757 14.1708 60.9873Z" fill="#FFB68D"/>
<path d="M32.6544 58.1056C33.8866 59.1348 34.9135 59.9581 36.1458 60.9873C37.7888 59.3406 39.4317 57.694 41.2801 56.0473C44.5661 52.9598 47.6466 50.0781 50.9326 47.4023C51.3434 46.7848 51.5487 46.1673 51.7541 45.1382C51.9595 44.3148 51.9595 43.4915 51.9595 42.874C50.3165 41.4332 48.4681 40.1982 46.8251 38.7573C45.1822 40.404 43.95 41.8448 43.3338 42.6682C39.4317 47.814 39.2264 51.519 35.1189 55.8415C34.092 57.0765 33.0651 57.694 32.6544 58.1056Z" fill="#FFB68D"/>
<path d="M37.3779 52.1365C35.5295 53.989 33.6812 56.0473 31.8328 57.8998C33.4758 59.1348 34.9134 60.164 36.5564 61.399C38.4048 59.5465 40.2531 57.694 41.8961 56.0473C40.4585 54.8123 39.0209 53.5773 37.3779 52.1365Z" fill="white"/>
<path d="M35.3241 118.826C41.0746 118.826 46.825 118.621 52.7808 118.621C52.9862 118.003 53.1916 116.974 52.7808 115.945C52.5755 115.533 52.3701 115.327 52.3701 115.121C51.9594 114.298 51.3433 113.063 51.1379 110.799C50.111 110.593 49.0841 110.593 47.8519 110.387C46.2089 111.828 44.5659 113.475 42.9229 114.916C41.28 115.327 40.0477 115.739 39.2263 115.945C36.9671 116.562 35.7349 116.768 35.5295 117.591C35.1187 118.209 35.1187 118.621 35.3241 118.826Z" fill="#FFB68D"/>
<path d="M25.2609 17.1447C26.4931 17.7622 27.7254 18.3797 28.9576 18.9972C31.0114 20.0264 32.8597 21.0556 34.9134 22.0847L39.4316 13.4397C35.1188 11.7931 30.806 10.1464 26.4931 8.49976C26.4931 9.94059 26.4931 11.7931 26.0823 13.6456C25.877 15.0864 25.6716 16.1156 25.2609 17.1447Z" fill="#FFB68D"/>
<path d="M25.2609 17.1449C26.4931 17.7624 27.7254 18.3799 28.9576 18.9974C29.7791 17.3507 28.5468 15.0866 26.0823 13.6458C25.877 14.8808 25.6716 16.1157 25.2609 17.1449Z" fill="#E88D60"/>
<path d="M72.0861 49.8723C71.0592 43.4914 70.2377 37.1106 69.2108 30.7298C63.8711 27.0248 58.5314 23.3198 53.1917 19.6148C49.495 16.939 47.0305 15.9098 44.1553 14.6748C39.8425 12.8223 36.1457 11.7932 33.6812 11.1757C33.0651 14.8807 32.2436 18.3798 31.6275 22.0848C32.449 23.5256 33.4759 25.1723 34.7081 26.819C36.9672 29.9065 39.2263 32.3765 41.2801 34.4348C45.3876 36.2873 49.7003 38.1398 53.8078 39.9923C59.7636 43.2856 65.9249 46.5789 72.0861 49.8723Z" fill="#BBC4FE"/>
<path d="M44.5659 70.0439C42.3068 75.1897 41.6907 79.718 43.1283 80.7472C44.7713 81.7764 49.2895 79.3064 54.0131 73.7489C59.1474 65.3097 64.0764 57.0764 69.2107 48.6372C64.6925 45.1381 60.1743 41.6389 55.8615 38.3456C54.0131 41.0214 51.9594 44.1089 50.3164 48.0197C46.0036 56.6647 44.7713 64.4864 44.5659 70.0439Z" fill="#FFB68D"/>
<path d="M69.6216 69.6323C71.4699 74.984 74.3452 78.689 75.9882 78.2773C78.0419 77.8657 79.4795 72.7198 78.8634 65.7215C76.6043 56.2532 74.5505 46.7849 72.2914 37.1107C66.7463 37.7282 60.9959 38.3457 55.4508 38.9632C55.8616 42.2565 56.683 45.7557 58.1206 49.8724C61.4066 58.929 66.1302 65.5157 69.6216 69.6323Z" fill="#FFB68D"/>
<path d="M45.5929 113.681C47.4412 113.475 49.2896 113.475 51.138 113.269C50.7272 108.123 51.5487 104.418 52.3702 101.742C53.6025 97.4198 54.8347 97.214 55.4508 93.0973C56.2723 87.9515 55.04 83.4232 54.8347 82.5998C54.4239 81.3648 54.4239 81.159 53.8078 79.5123C52.9863 76.219 52.5756 73.5432 52.1648 71.6907C49.2896 74.7782 46.6197 77.6598 43.7445 80.7473C44.1553 82.8057 44.3606 84.864 44.7714 87.1282C46.0036 96.8023 46.209 105.859 45.5929 113.681Z" fill="#FFB68D"/>
<path d="M25.4662 18.3799C26.0823 17.5566 29.779 13.6457 28.7522 9.7349C28.7522 9.7349 28.5468 9.1174 27.9307 7.67657C26.0823 3.35408 26.0823 3.14824 25.8769 2.73658C24.4393 1.08991 21.3587 0.884083 19.305 1.50158C15.4029 2.53075 12.9384 6.85324 13.3491 9.1174C13.3491 9.52907 13.5545 9.94073 13.7599 10.1466C14.9921 12.4107 15.4029 13.4399 15.4029 13.4399C15.4029 13.4399 15.4029 13.4399 15.4029 13.6457C15.4029 13.6457 15.4029 13.6457 15.6083 13.6457C15.8136 13.8516 16.2244 14.0574 16.4297 14.2632C17.662 15.9099 18.2781 16.7332 18.2781 16.9391C18.4835 17.3507 18.6888 17.5566 18.8942 17.7624C18.8942 17.7624 18.8942 17.7624 19.0996 17.9682V18.1741C19.0996 18.3799 19.5103 18.3799 19.5103 18.3799C19.5103 18.3799 20.1265 18.5857 20.3318 18.1741V17.9682C20.3318 17.9682 19.9211 18.5857 20.1264 18.5857H20.3318C20.5372 18.5857 20.5372 18.5857 20.5372 18.5857C20.7426 18.5857 21.3587 20.0266 21.7695 20.2324C22.591 21.0557 24.2339 19.8207 25.4662 18.3799Z" fill="#FFB68D"/>
<path d="M17.0459 17.351C17.2513 17.5568 17.662 17.5568 17.8674 17.5568C18.2781 17.5568 18.6889 17.351 18.6889 17.1451C18.6889 16.9393 18.6889 16.7335 18.6889 16.5276C18.6889 16.3218 18.4835 16.3218 18.2782 16.116C18.0728 16.116 18.0728 15.9101 17.8674 15.4985C17.4566 14.881 16.8406 14.4693 16.4298 13.8518C16.4298 14.2635 16.6352 14.6751 16.6352 15.0868C16.8406 15.9101 16.8405 15.9101 16.8405 16.3218C16.8405 17.1451 16.8405 17.1451 17.0459 17.351Z" fill="#FFB68D"/>
<path d="M16.6353 13.44C16.4299 13.44 16.4299 13.44 16.6353 13.44C16.4299 13.2341 16.4299 13.2341 16.4299 13.0283C16.8406 12.6166 17.4567 12.4108 17.8674 12.205C18.2782 11.9991 18.689 11.9991 19.0997 11.9991C19.3051 11.9991 19.3051 11.9991 19.3051 12.205C19.3051 12.4108 19.3051 12.4108 19.0997 12.4108C18.689 12.4108 18.2782 12.4108 17.8674 12.6166C17.6621 12.8225 17.046 13.0283 16.6353 13.44Z" fill="#171930"/>
<path d="M17.4567 13.6458C17.662 14.0575 18.0728 14.0575 18.2781 13.8516C18.4835 13.6458 18.4835 13.2341 18.2781 13.0283C18.0728 12.6166 17.662 12.6166 17.4567 12.8225C17.0459 12.8225 17.0459 13.2341 17.4567 13.6458Z" fill="#171930"/>
<path d="M20.1265 18.5858C19.9211 18.38 19.9211 18.38 19.9211 18.1741C20.1265 17.9683 20.3319 17.7625 20.5372 17.5566C20.7426 17.3508 20.948 16.9391 21.1533 16.7333C21.1533 16.5275 21.3587 16.5275 21.3587 16.5275L21.5641 16.7333C21.3587 17.145 21.1533 17.3508 20.9479 17.7625C20.7426 18.1741 20.5372 18.38 20.1265 18.5858Z" fill="#171930"/>
<path d="M18.8943 10.5582C18.8943 10.5582 18.4835 10.5582 18.2782 10.7641C17.8674 10.9699 16.8405 11.5874 15.8137 12.6165C15.6083 12.6165 15.4029 12.4107 15.1976 11.999C15.1976 11.7932 14.9922 11.7932 14.9922 11.5874C15.6083 11.1757 16.2244 10.764 16.8405 10.1466C17.0459 9.94072 17.4567 9.73489 18.0728 9.52905C18.4835 9.52905 18.4836 9.52905 18.6889 9.52905C18.8943 9.52905 18.8943 9.73489 19.0997 9.73489C19.305 9.73489 19.5104 9.94072 19.305 10.1466C19.305 10.3524 19.0996 10.5582 18.8943 10.5582Z" fill="#171930"/>
<path d="M98.99 118.415C100.633 118.209 102.481 118.003 104.124 117.797C106.589 113.886 109.053 110.181 111.518 106.27C111.107 105.653 110.491 104.83 109.669 104.418C109.259 104.212 109.053 104.212 108.848 104.212C108.026 104.006 106.794 103.389 104.946 101.948C104.124 102.565 103.303 103.183 102.276 103.8C102.071 106.065 102.071 108.329 101.865 110.593C101.454 112.24 100.838 113.475 100.428 114.298C99.4007 115.945 98.1685 116.974 98.3739 117.797C98.3739 118.003 98.7846 118.209 98.99 118.415Z" fill="#FFB68D"/>
<path d="M103.097 107.506C104.33 106.065 105.562 104.83 106.999 103.389C103.097 99.8897 101.044 96.5964 100.017 94.1264C97.963 90.2156 98.5791 89.1864 96.32 85.8931C93.4448 81.7764 89.3373 79.1006 88.7212 78.6889C87.6943 78.0714 87.4889 78.0714 85.846 77.0423C82.9707 75.1898 80.7117 73.5431 79.274 72.3081C79.274 76.4248 79.274 80.5414 79.274 84.6581C80.917 85.8931 82.7654 87.3339 84.4084 88.5689C91.8018 94.7439 97.963 101.331 103.097 107.506Z" fill="#FFB68D"/>
<path d="M52.9862 119.238H34.7079C34.7079 118.621 35.1187 117.797 35.7348 116.974C36.5563 115.945 37.7885 115.533 39.4315 115.121C40.6638 114.71 42.5121 114.092 44.7712 113.269C44.9766 112.651 45.182 112.034 45.5927 112.034C46.2088 112.034 46.2089 113.475 47.0304 114.504C47.6465 115.327 49.2895 116.151 52.9862 115.533C53.1915 115.739 53.8077 116.974 53.3969 118.209C53.1916 118.621 52.9862 119.032 52.9862 119.238Z" fill="#171930"/>
<path d="M53.397 119.65H34.5026C34.2972 119.65 34.0919 119.444 34.0919 119.238C34.0919 119.032 34.2972 118.826 34.5026 118.826H53.397C53.6023 118.826 53.8077 119.032 53.8077 119.238C53.8077 119.65 53.6023 119.65 53.397 119.65Z" fill="#2A2B6C"/>
<path d="M111.929 105.653C109.669 109.77 107.41 113.886 104.946 118.209C102.687 118.209 100.633 118.415 98.3739 118.415C98.1685 118.003 97.7577 117.18 97.9631 116.562C98.1685 115.327 99.4007 114.915 100.017 114.092C100.838 113.269 101.66 111.622 101.454 108.535C101.454 108.123 101.249 107.711 101.66 107.3C102.071 106.682 103.303 107.505 104.33 107.505C105.562 107.505 107 106.682 108.848 103.183C109.259 103.183 110.491 103.389 111.312 104.418C111.518 105.035 111.723 105.447 111.929 105.653Z" fill="#171930"/>
<path d="M105.151 118.209L104.74 118.826H98.3738C98.1684 118.826 97.963 118.621 97.963 118.415C97.963 118.209 98.1684 118.003 98.3738 118.003H105.151V118.209Z" fill="#2A2B6C"/>
<path d="M112.134 105.859C112.134 106.065 112.134 106.065 112.134 105.859L105.151 118.003L104.74 118.62H103.919L104.33 118.003L111.518 105.653C111.723 105.447 111.928 105.447 111.928 105.447C112.134 105.653 112.134 105.859 112.134 105.859Z" fill="#2A2B6C"/>
<path d="M53.397 39.7866C51.5487 43.4916 49.4949 47.6083 47.6465 52.1366C44.9767 59.1349 43.3337 65.5157 42.3069 71.0732C42.1015 74.1607 41.8961 77.454 41.4853 80.5415C42.3068 91.039 43.1283 101.331 43.9498 111.828C45.3874 112.034 47.0304 112.034 48.8788 112.034C50.5218 112.034 52.1648 111.828 53.6024 111.622C54.2185 107.3 54.8346 103.389 55.04 100.096C55.6561 94.1265 56.0668 91.039 55.8615 87.334C55.6561 83.0115 54.8346 79.3065 54.0131 76.0132C58.7367 67.1624 63.255 58.5174 67.9785 49.6666C65.7194 45.7558 63.4603 41.6391 61.2012 37.7283C58.5313 38.5516 56.0669 39.1691 53.397 39.7866Z" fill="#2A2B6C"/>
<path d="M53.1916 50.2838C60.1743 61.6046 66.9517 72.9254 73.9344 84.2463C75.1666 84.8638 76.1934 85.2754 77.4257 85.8929C84.6138 93.0971 91.5965 100.301 98.7846 107.505C100.838 105.035 103.097 102.771 105.151 100.301C103.713 95.5671 100.428 86.3046 91.8018 78.8946C88.3105 75.8071 84.6138 73.7488 81.7385 72.3079C79.4794 61.8105 77.2203 51.313 74.9612 41.0213C74.9612 39.9922 74.9612 36.2872 72.2913 32.788C70.0322 29.7005 66.9517 28.6713 65.9248 28.2597C65.7194 29.7005 65.3087 31.9647 63.6657 34.2288C62.2281 36.493 60.5851 37.728 59.5582 38.5513C55.4508 37.5222 49.0842 35.258 42.923 30.318C40.0477 28.0538 37.7886 25.5838 35.9403 23.5255C34.9134 25.378 33.8866 27.0247 33.0651 28.8772C34.2973 30.9355 36.5564 34.2288 40.0477 36.9047C45.1821 41.0213 50.5218 42.2563 53.1916 42.8738C53.1916 45.3438 53.1916 47.8138 53.1916 50.2838Z" fill="#2A2B6C"/>
<path d="M38.8155 35.0524C38.6101 35.6699 38.1994 36.2874 37.7886 37.1107C36.5564 39.5807 35.1187 42.6682 33.2704 45.9615L27.3145 43.0799C28.9575 37.7282 30.6005 32.1707 32.2435 26.8191C32.2435 26.2016 32.2435 21.2616 36.1456 18.1741C38.4047 16.3216 40.8692 16.1157 42.1015 15.9099C42.3068 16.1157 42.7176 16.3216 42.9229 16.9391C44.3606 19.2032 44.3605 22.7024 39.4316 33.6115C39.2262 34.229 39.0208 34.6407 38.8155 35.0524Z" fill="#FFB68D"/>
<path d="M38.8155 35.0522C38.6101 35.6697 38.1993 36.2872 37.7886 37.1105C35.5295 35.4639 33.2704 33.6114 31.0113 31.9647L39.4316 33.6114C39.2262 34.2289 39.0208 34.6406 38.8155 35.0522Z" fill="#E88D60"/>
<path d="M41.0747 35.8756C37.1726 34.6406 33.4758 33.1998 29.5737 31.9648C30.6006 27.8481 31.4221 23.9373 32.4489 19.8207C35.7349 17.9682 39.0209 16.3215 42.3069 14.469C42.923 15.0865 43.7445 16.3215 44.1553 17.7623C44.7714 19.8207 44.566 21.6732 44.566 22.7023C43.5391 27.0248 42.3069 31.5531 41.0747 35.8756Z" fill="#BBC4FE"/>
<path d="M60.7905 63.2514C60.5852 63.2514 60.5851 63.0456 60.5851 62.8397L69.4162 44.9323C69.4162 44.7264 69.6216 44.7264 69.827 44.7264C70.0323 44.7264 70.0323 44.9323 70.0323 45.1381L61.2012 63.0456C60.9959 63.2514 60.9959 63.2514 60.7905 63.2514Z" fill="#6165AF"/>
<path d="M79.6848 73.9548C79.4794 73.749 79.4794 73.5431 79.4794 73.5431L81.1224 72.1023C81.3278 72.1023 81.3278 72.1023 81.5331 72.1023C81.5331 72.3081 81.5331 72.3081 81.5331 72.514L79.6848 73.9548Z" fill="#6165AF"/>
<path d="M51.9594 77.4539C51.9594 77.4539 51.754 77.4539 51.754 77.2481C51.754 77.0422 51.754 77.0422 51.754 76.8364L53.397 76.0131C53.6024 76.0131 53.6023 76.0131 53.8077 76.0131C53.8077 76.2189 53.8077 76.2189 53.8077 76.4247L51.9594 77.4539C52.1647 77.4539 52.1647 77.4539 51.9594 77.4539Z" fill="#6165AF"/>
<path d="M54.0131 79.3064C53.8077 79.3064 53.8077 79.1006 53.8077 78.8947L54.0131 78.2772C54.0131 78.0714 54.2185 78.0714 54.4238 78.0714C54.6292 78.0714 54.6292 78.2772 54.6292 78.4831L54.4238 79.1006C54.2185 79.1006 54.2184 79.3064 54.0131 79.3064Z" fill="#6165AF"/>
<path d="M57.5046 40.8158C57.2992 40.6099 57.2992 40.6099 57.2992 40.4041L58.7369 38.5516C58.7369 38.3458 58.9422 38.3458 59.1476 38.5516C59.3529 38.5516 59.3529 38.7574 59.1476 38.9633L57.5046 40.8158Z" fill="#6165AF"/>
<path d="M59.3529 40.8157C59.1475 40.8157 59.1475 40.6099 59.1475 40.404L59.5583 39.5807C59.5583 39.3749 59.7636 39.3749 59.969 39.3749C60.1743 39.3749 60.1744 39.5807 60.1744 39.7865L59.7636 40.6099C59.5583 40.6099 59.5583 40.8157 59.3529 40.8157Z" fill="#6165AF"/>
<path d="M53.6025 43.4914C53.1918 43.4914 52.781 43.4914 52.3703 43.4914C52.1649 43.4914 52.1649 43.2856 52.1649 43.2856C52.1649 43.0798 52.3703 43.0798 52.3703 43.0798C53.3971 43.0798 54.6294 43.0798 55.6563 43.0798C60.1745 42.4623 63.6658 40.1981 65.7195 38.1398C65.7195 38.1398 65.9249 38.1398 66.1303 38.1398C66.1303 38.3456 66.1303 38.3456 66.1303 38.5514C64.0765 40.6098 60.5852 43.0798 55.8616 43.4914C55.0401 43.4914 54.2186 43.4914 53.6025 43.4914Z" fill="#6165AF"/>
<path d="M52.5756 45.1383C52.3702 45.1383 52.3702 44.9324 52.3702 44.9324C52.3702 44.7266 52.3702 44.7266 52.5756 44.7266L54.0132 44.5208C54.8347 44.5208 55.6562 44.3149 56.4777 44.3149C56.6831 44.3149 56.6831 44.3149 56.6831 44.5208C56.6831 44.7266 56.6831 44.7266 56.4777 44.7266C55.6562 44.7266 54.8347 44.9324 54.0132 44.9324L52.5756 45.1383Z" fill="#6165AF"/>
<path d="M64.8979 34.6407C61.4066 29.2891 57.7098 25.7899 55.04 23.9374C50.5218 20.6441 45.5928 16.9391 39.8424 17.9683C35.7349 18.7916 33.065 21.6732 31.6274 23.3199C31.422 22.9082 31.2166 22.2907 31.2166 21.6732C31.2166 20.6441 31.2167 20.0266 31.422 19.4091C32.2435 18.7916 33.6811 17.7624 35.5295 17.1449C44.1552 14.2633 52.9863 20.4382 56.4776 22.7024C58.9421 24.3491 62.8442 27.4366 66.3355 32.3766L64.8979 34.6407Z" fill="#2A2B6C"/>
<path d="M42.7176 30.3182C42.5122 30.3182 42.5122 30.1124 42.5122 30.1124L43.539 25.9958C43.539 25.7899 43.7444 25.7899 43.7444 25.7899C43.9498 25.7899 43.9498 25.9958 43.9498 25.9958L42.7176 30.3182Z" fill="#171930"/>
<path d="M28.9576 9.11736C28.9576 9.32319 28.9576 9.73485 28.7522 9.94069C28.3415 10.1465 27.1092 7.47069 26.2877 7.47069C25.6716 7.67653 25.877 8.70569 25.0555 9.11736C24.234 9.52902 23.6179 8.08819 21.9749 7.67653C19.9211 7.05903 18.6889 9.11736 14.3761 9.73486C13.5546 9.94069 12.7331 9.94069 12.3224 9.32319C12.117 8.91152 12.117 8.29402 12.3224 7.88236C12.7331 7.26486 13.1439 7.26486 13.5546 6.64736C13.76 6.23569 13.7599 5.82403 13.7599 5.41236C13.9653 3.97153 16.2244 2.73653 17.2513 2.11903C19.7158 0.884034 21.9749 0.884033 23.4125 0.884033C26.0824 1.70737 26.9039 2.73653 27.52 3.7657C28.5469 5.82403 28.9576 7.47069 28.9576 9.11736Z" fill="#171930"/>
<path d="M12.9385 6.85311C16.0191 7.26478 19.3051 7.47061 22.7964 7.47061C24.8502 7.47061 26.9039 7.47061 28.9576 7.47061C28.9576 6.85311 28.5469 2.94228 25.4663 1.08979C21.7695 -1.38021 16.2245 0.67812 14.1707 3.97145C13.3492 5.00061 13.1439 6.23561 12.9385 6.85311Z" fill="#FF6AC6"/>
<path d="M11.9115 7.88235C17.1291 7.88235 21.3587 7.32942 21.3587 6.64735C21.3587 5.96528 17.1291 5.41235 11.9115 5.41235C6.69398 5.41235 2.46432 5.96528 2.46432 6.64735C2.46432 7.32942 6.69398 7.88235 11.9115 7.88235Z" fill="#FF6AC6"/>
<path d="M9.4471 66.5448C7.80411 69.2206 6.16109 70.044 4.72347 70.4556C3.90198 70.6615 3.28585 70.6615 2.46435 71.279C1.02674 72.3081 0.410655 74.1606 -9.15527e-05 75.6015C5.13424 75.6015 10.2686 75.6015 15.6083 75.6015C15.8137 75.1898 15.8137 74.7781 15.6083 74.1606C15.4029 73.3373 14.5814 73.1315 12.9384 71.6906C11.7062 70.8673 11.2954 70.4556 11.0901 69.8381C10.8847 68.809 11.5008 67.7798 11.9115 67.1623C11.09 66.9565 10.2686 66.7506 9.4471 66.5448Z" fill="#171930"/>
<path d="M7.80408 68.1915C9.03632 66.5448 10.0632 64.8981 11.2955 63.2515C12.3223 64.2806 13.3492 65.3098 14.3761 66.339C13.5546 67.574 12.733 68.6031 11.9115 69.8381C10.6793 69.6323 9.2417 69.4265 8.00946 68.6031C8.00946 68.3973 7.80408 68.1915 7.80408 68.1915Z" fill="#DF48A7"/>
<path d="M10.6792 65.104C10.8846 64.2807 11.09 62.634 12.3223 61.6048C15.1975 59.3407 20.7425 61.399 21.1533 63.4573C21.3587 64.2807 20.5372 65.3098 19.7157 65.7215C18.2781 66.339 17.0458 64.4865 15.8136 65.104C14.7867 65.5157 14.9921 66.9565 14.1706 67.1623C13.5545 67.3682 12.733 66.7507 12.3223 66.1332C11.7061 65.7215 11.09 65.3098 10.6792 65.104Z" fill="#DF48A7"/>
<path d="M64.4873 100.713C63.4604 100.713 62.4336 100.507 61.6121 100.095C58.3261 98.6546 57.71 95.5671 56.6831 91.4504C55.6563 86.9221 54.424 80.7471 49.2897 72.3079C44.7715 64.8979 40.664 60.9871 36.5565 60.7813C34.9135 60.5755 33.2705 60.9871 32.2436 61.193C28.5469 62.0163 26.904 63.8688 22.7965 64.8979C21.7696 65.1038 20.9481 65.3096 20.332 65.3096C20.5374 65.1038 20.7427 64.4863 20.9481 63.663C20.9481 63.0455 20.9481 62.6338 20.9481 62.428C23.2072 60.7813 26.904 58.723 31.8329 57.6938C33.6813 57.2821 35.3243 57.0763 37.1727 57.0763C42.7177 57.488 47.6466 61.6046 52.781 70.2496C58.1207 79.3063 59.5583 86.0988 60.5852 90.4212C61.4067 94.3321 61.8174 95.7729 63.255 96.3904C67.1571 98.0371 73.7291 92.4796 80.0957 87.1279C88.3106 80.1296 96.7309 72.9254 104.33 76.0129C108.026 77.4538 109.669 80.7471 111.518 84.0404C113.366 87.5396 115.42 91.2446 120.144 93.3029C123.84 94.9496 127.948 95.1554 132.877 93.9204L133.698 97.4196C128.153 98.6546 123.019 98.4487 118.706 96.5962C112.75 93.9204 110.286 89.3921 108.232 85.6871C106.589 82.8054 105.357 80.3354 102.892 79.5121C97.3471 77.2479 89.7483 83.8346 82.3548 90.0096C75.7829 95.5671 69.827 100.713 64.4873 100.713Z" fill="#BBC4FE"/>
<path d="M37.1726 54.1947C36.7619 54.1947 33.4758 53.5772 31.4221 55.8414C30.1899 57.2822 29.7791 59.5464 30.3952 59.7522C30.806 59.958 31.4221 59.5464 32.8598 58.1055C34.2974 57.2822 35.5296 56.6647 36.9672 55.8414L37.1726 54.1947Z" fill="white"/>
<path d="M39.2263 61.1933C39.2263 62.2224 34.708 62.4282 34.5027 62.4282C33.6812 62.4282 30.6006 62.6341 30.3952 61.8108C30.3952 61.3991 31.2167 60.5758 32.0382 60.5758C32.6543 60.5758 33.065 60.7816 33.2704 60.9874C33.4758 60.3699 33.8866 60.1641 34.5027 60.1641C34.9134 60.1641 35.3242 60.3699 35.5295 60.7816C35.5295 60.1641 36.1456 59.9583 36.351 59.9583C36.7618 59.9583 36.9672 60.5758 36.7618 61.1933C36.7618 60.9874 36.9672 60.5758 37.5833 60.3699C38.1994 59.9583 39.2263 60.7816 39.2263 61.1933Z" fill="white"/>
<path d="M17.662 56.8706C15.8137 59.1348 14.1707 59.7523 13.1438 59.9581C12.9384 59.9581 11.7062 60.3698 11.0901 61.1931C10.8847 61.3989 10.6793 61.8106 10.6793 62.2223C10.6793 62.6339 11.0901 62.8398 11.2954 62.8398C11.2954 62.6339 11.7062 61.8106 12.733 61.6048C13.7599 61.1931 14.5814 61.6048 14.5814 61.8106C14.3761 62.8398 14.1707 63.6631 13.9653 64.6923C13.9653 64.8981 13.9653 65.3098 14.1707 65.7214C14.376 65.9273 14.5814 66.1331 14.5814 66.1331C14.5814 66.1331 14.5814 66.1331 14.7868 66.1331C14.9921 66.1331 17.0459 67.3681 19.0996 66.5448C19.7157 66.3389 20.1265 65.9273 20.3319 65.7214C21.1534 63.8689 21.7695 62.2223 22.591 60.3698C23.8232 59.1348 25.0554 57.8998 26.0823 56.6648C25.8769 56.0473 25.2608 54.8123 24.0286 53.9889C22.1802 52.5481 20.1265 52.7539 19.7158 52.7539C19.305 53.9889 18.4835 55.4298 17.662 56.8706Z" fill="white"/>
<path d="M128.153 92.8914H120.76V100.301H128.153V92.8914Z" fill="#171930"/>
<path d="M130.617 85.6872C130.617 84.6581 132.055 83.4231 137.395 81.5706C137.806 79.9239 138.422 78.2773 138.832 76.6306C142.118 76.4248 145.404 76.0131 148.69 75.8073C149.923 76.8364 151.36 78.0714 152.592 79.1006C161.423 80.9531 165.942 81.1589 168.612 80.9531C169.022 80.9531 170.46 80.7472 171.487 81.5706C173.13 82.8056 172.924 85.6872 172.514 86.9222C169.844 94.3322 130.823 90.6272 130.617 85.6872Z" fill="#BBC4FE"/>
<path d="M171.487 120.885H131.85C129.591 120.885 127.742 119.032 127.742 116.768V88.5689C127.742 86.3048 129.591 84.4523 131.85 84.4523H171.487C173.746 84.4523 175.594 86.3048 175.594 88.5689V116.768C175.594 119.032 173.746 120.885 171.487 120.885Z" fill="#DF48A7"/>
<path d="M175.8 122.12H127.332C126.305 122.12 125.483 121.296 125.483 120.267V114.915C125.483 113.886 126.305 113.063 127.332 113.063H175.8C176.827 113.063 177.648 113.886 177.648 114.915V120.267C177.648 121.296 176.827 122.12 175.8 122.12Z" fill="#FF6AC6"/>
<path d="M173.541 114.915C173.541 120.267 169.228 124.59 163.888 124.59C158.548 124.59 154.235 120.267 154.235 114.915C154.235 109.564 158.548 105.241 163.888 105.241C169.228 105.241 173.541 109.564 173.541 114.915Z" fill="#171930"/>
<path d="M136.984 119.855C136.984 122.12 135.136 123.766 133.082 123.766C130.823 123.766 129.18 121.914 129.18 119.855C129.18 117.591 131.028 115.945 133.082 115.945C135.341 115.739 136.984 117.591 136.984 119.855Z" fill="#171930"/>
<path d="M148.69 106.476H141.708V108.123H148.69V106.476Z" fill="#171930"/>
<path d="M159.37 89.3922C159.37 90.6272 158.343 91.4505 157.316 91.4505C156.289 91.4505 155.262 90.4214 155.262 89.3922C155.262 88.1572 156.289 87.3339 157.316 87.3339C158.343 87.3339 159.37 88.363 159.37 89.3922Z" fill="#171930"/>
<path d="M165.942 89.3922C165.942 90.6272 164.915 91.4505 163.888 91.4505C162.861 91.4505 161.834 90.4214 161.834 89.3922C161.834 88.1572 162.861 87.3339 163.888 87.3339C164.915 87.3339 165.942 88.363 165.942 89.3922Z" fill="#171930"/>
</svg>
